<?xml version="1.0" encoding="UTF-8" standalone="no"?>
<svg
   xmlns:dc="http://purl.org/dc/elements/1.1/"
   xmlns:cc="http://creativecommons.org/ns#"
   xmlns:rdf="http://www.w3.org/1999/02/22-rdf-syntax-ns#"
   xmlns:svg="http://www.w3.org/2000/svg"
   xmlns="http://www.w3.org/2000/svg"
   xmlns:sodipodi="http://sodipodi.sourceforge.net/DTD/sodipodi-0.dtd"
   xmlns:inkscape="http://www.inkscape.org/namespaces/inkscape"
   width="1024"
   height="1024"
   viewBox="0 0 1024 1024"
   version="1.1"
   id="svg48"
   sodipodi:docname="a-digital-illustration-with-a-bold-and-graphic-des (1).svg"
   inkscape:version="1.0.2-2 (e86c870879, 2021-01-15)">
  <metadata
     id="metadata54">
    <rdf:RDF>
      <cc:Work
         rdf:about="">
        <dc:format>image/svg+xml</dc:format>
        <dc:type
           rdf:resource="http://purl.org/dc/dcmitype/StillImage" />
      </cc:Work>
    </rdf:RDF>
  </metadata>
  <defs
     id="defs52" />
  <sodipodi:namedview
     pagecolor="#ffffff"
     bordercolor="#666666"
     borderopacity="1"
     objecttolerance="10"
     gridtolerance="10"
     guidetolerance="10"
     inkscape:pageopacity="0"
     inkscape:pageshadow="2"
     inkscape:window-width="1600"
     inkscape:window-height="837"
     id="namedview50"
     showgrid="false"
     inkscape:zoom="0.65429688"
     inkscape:cx="512"
     inkscape:cy="512"
     inkscape:window-x="-8"
     inkscape:window-y="-8"
     inkscape:window-maximized="1"
     inkscape:current-layer="svg48" />
  <path
     transform="scale(2)"
     d="m 214.052,194.203 -0.289,0.182 c -1.547,0.967 -3.507,1.956 -5.136,2.721 -9.024,4.236 -17.352,9.271 -24.159,16.685 -0.687,0.748 -1.626,1.731 -2.383,2.435 -7.714,-4.17 -13.846,-7.874 -20.483,-13.686 1.463,-2.12 3.115,-3.979 4.786,-5.933 -7.762,-2.476 -8.648,-2.913 -16.07,0.801 -9.97,4.989 -19.111,13.15 -22.868,23.947 4.023,1.223 9.57,2.528 13.212,4.178 13.425,6.084 24.73,13.78 38.731,18.85 0.261,2.554 0.584,5.004 0.928,7.546 -3.647,-0.514 -5.326,-2.229 -9.007,-3.405 -0.69,0.217 -3.74,1.238 -4.165,1.213 -7.189,-0.431 -15.172,-3.142 -21.468,-6.205 -7.524,-3.66 -11.012,-9.799 -16.789,-14.408 -2.706,0.952 -4.247,1.911 -6.669,3.47 -11.024,-5.782 -20.029,-20.547 -27.7655,-30.02 -1.6521,1.72 -3.0635,3.472 -4.3195,5.507 -4.8819,-5.393 -11.0065,-11.669 -14.5398,-17.885 -2.614,-4.599 -5.001,-11.237 -6.865,-16.27 -3.9231,3.235 -10.606,10.125 -13.4629,14.451 8.9177,11.27 15.904,22.361 26.0718,32.963 -1.2963,2.074 -2.2723,3.631 -3.3212,5.867 11.8618,5.117 26.0871,10.843 37.1491,17.133 -1.599,3.57 -1.81,5.944 -1.913,9.854 15.021,0.686 32.401,1.366 46.89,6.475 12.279,4.33 13.175,3.957 25.479,0.836 1.173,1.958 3.188,4.845 3.402,7.008 -1.216,3.374 -10.687,1.958 -13.584,2.052 -3.355,0.108 -6.767,1.617 -10.015,1.909 -19.004,1.71 -33.052,-6.785 -48.781,-15.589 -0.485,3.272 -1.167,6.825 -1.114,10.106 -0.358,-0.884 -0.565,-1.508 -0.837,-2.424 -0.357,0.856 -0.42,1.838 -0.851,2.875 -0.422,-0.799 -1.128,-2.475 -2.063,-2.731 -1.92,-0.524 -37.086,13.728 -42.0725,15.509 1.047,1.318 3.3229,3.833 3.5104,5.317 -0.8474,1.625 -3.8819,1.143 -5.5345,1.107 -1.9247,1.239 -4.3822,4.38 -5.7897,6.212 -8.2573,10.749 -15.6529,27.82 -16.5955,41.498 l 0.2611,-0.374 c 2.3557,-3.426 3.335,-6.934 5.8504,-10.345 7.4615,-10.116 18.9657,-19.923 28.7673,-27.9 -0.2178,-1.78 -0.3751,-3.116 -0.7808,-4.856 5.6308,-0.394 38.0568,-3.045 38.7618,-7.136 0.544,-0.439 0.649,-0.486 1.238,-0.853 0.682,1.45 1.582,3.442 3.364,3.582 5.752,0.454 12.001,-0.972 17.824,-0.958 8.101,0.019 15.986,-0.372 24.059,0.008 5.418,0.254 11.038,1.412 16.358,0.237 5.881,-1.377 10.074,-5.712 14.982,-8.83 2.641,1.877 4.784,4.204 6.854,6.666 -1.162,0.728 -5.18,3.37 -6.218,3.275 -7.148,-0.649 -10.277,4.788 -16.949,6.866 -13.031,4.06 -22.059,0.056 -33.547,-5.839 -0.173,2.341 -0.518,4.462 -0.653,6.907 -4.185,1.341 -8.269,2.396 -12.478,3.826 -9.309,3.162 -17.282,7.017 -25.843,11.731 1.199,1.813 2.623,3.655 3.929,5.408 -9.325,10.346 -13.8473,20.987 -19.8009,33.158 3.5331,1.553 6.167,2.516 9.9159,3.282 5.847,-4.886 15.651,-11.997 20.82,-17.115 -0.121,-3.255 -0.493,-7.291 -0.801,-10.558 1.421,0.602 2.969,1.48 4.352,2.218 7.975,-4.299 16.562,-11.155 24.211,-16.275 0.394,1.685 0.592,4.054 1.88,5.11 5.279,1.052 39.653,-10.966 45.861,-14.884 3.059,-1.931 11.383,-9.1 13.127,-9.679 2.204,0.142 5.361,2.501 7.255,3.787 -1.821,4.152 -4.243,6.767 -7.309,10.083 3.126,0.308 6.26,0.53 9.321,-0.352 3.167,-0.912 5.299,-3.343 8.201,-4.673 2.795,0.209 6.06,1.2 8.778,1.932 11.479,3.09 23.202,3.222 34.815,0.781 3.606,-0.758 7.421,-1.954 11.072,-2.511 l 0.357,-0.053 c 0.422,0.253 0.995,0.672 1.385,0.975 6.523,5.081 9.679,5.007 17.377,3.871 -2.806,-3.434 -5.735,-6.205 -8.863,-9.321 2.908,-2.134 4.698,-3.215 7.814,-4.928 5.728,5.352 8.687,8.277 16.262,11.52 14.113,6.043 29.061,9.259 43.683,13.84 0.399,-1.542 1.311,-3.889 1.868,-5.455 2.234,1.899 4.468,4.272 6.883,6.327 5.924,5.043 11.461,7.953 19.432,7.537 0.712,-0.037 0.702,-0.169 1.375,0.106 -0.04,0.922 -0.197,3.309 -0.142,4.05 0.375,5.091 3.749,10.668 7.408,13.983 8.638,7.826 12.211,6.735 22.474,6.532 -0.614,-1.989 -1.004,-4.024 -1.778,-6 -3.367,-8.596 -8.149,-17.054 -13.997,-24.195 -2.766,-3.378 -1.986,-3.373 0.534,-6.788 -6.601,-6.23 -22.938,-14.622 -31.811,-17.048 -2.345,0.716 -3.322,1.34 -5.332,2.638 -0.192,-2.523 -0.183,-4.636 -0.172,-7.155 -3.592,0.305 -7.833,0.392 -11.224,1.399 -9.112,2.706 -14.377,6.258 -24.063,2.494 -2.919,-1.134 -4.806,-2.143 -7.723,-3.721 -2.643,-1.429 -5.614,-3.702 -8.373,-4.693 -1.094,-0.393 -2.735,0.899 -3.674,1.567 -3.144,-2.796 -6.218,-4.376 -1.787,-7.982 0.75,-0.611 3.731,-2.678 4.266,-2.433 3.681,1.689 8.297,4.627 12.248,5.983 11.533,4.548 24.284,1.477 36.343,2.341 10.54,0.426 18.267,0.789 28.812,2.071 0.303,-2.269 0.82,-4.844 1.179,-7.167 2.547,1.581 3.997,2.738 6.88,4.098 10.293,4.857 22.27,5.234 33.43,5.675 -0.729,1.615 -1.494,3.898 -2.12,5.602 7.512,7.346 15.494,13.318 23.1,20.445 4.847,4.543 8.742,11.502 12.019,17.304 -2.184,-14.562 -7.518,-28.584 -16.544,-40.301 -4.859,-6.308 -4.143,-8.328 -13.144,-6.708 1.563,-1.519 3.715,-4.362 5.293,-6.169 -9.003,-4.42 -21.284,-8.364 -30.805,-11.884 -3.951,-1.461 -8.362,-2.556 -12.307,-4.116 -1.358,2.193 -2.312,4.159 -3.341,6.521 0.193,-5.815 1.023,-5.973 -0.179,-12.427 -3.673,1.388 -8.066,3.72 -11.82,5.32 -11.309,4.821 -23.741,9.175 -36.168,9.001 -2.443,-0.034 -4.248,-0.241 -6.575,-1.035 -2.541,-0.867 -4.9,-3.098 -7.621,-2.972 -1.692,0.078 -2.505,1.178 -3.575,2.329 -2.583,-0.574 -5.751,-1.517 -8.348,-2.227 1.498,-3.189 2.887,-6.109 4.779,-9.095 2.171,0.807 8.297,3.724 10.286,3.449 18.218,-2.526 35.819,-8.608 54.289,-9.947 2.635,-0.191 5.683,-0.871 8.309,-1.395 -0.384,-1.651 -1.258,-4.22 -0.841,-5.883 0.699,-2.779 31.274,-15.429 35.848,-18.019 0.087,-0.049 0.174,-0.1 0.26,-0.151 -1.171,-2.248 -2.614,-4.858 -3.627,-7.147 3.844,-4.339 7.79,-8.771 11.298,-13.387 4.86,-6.396 9.304,-12.739 14.473,-18.905 -4.363,-5.966 -7.96,-9.614 -13.377,-14.534 -6.494,18.961 -10.992,21.923 -23.886,35.915 -1.725,-1.804 -3.425,-3.955 -5.025,-5.894 -8.15,13.025 -10.854,19.053 -23.969,28.719 l -4.839,-5.999 c -3.977,3.186 -8.564,8.837 -11.622,11.061 -9.847,7.161 -25.895,11.162 -37.473,14.906 -0.044,-1.726 -0.108,-3.363 -0.209,-5.086 -0.993,-0.287 -3.153,-1.4 -4.17,-1.894 -1.297,2.35 -3.749,9.314 -4.882,12.275 -1.218,-2.004 -2.554,-4.095 -3.578,-6.191 -1.23,1.65 -9.356,9.15 -11.484,11.175 -0.548,-1.854 -0.89,-3.194 -0.98,-5.132 -1.605,1.304 -3.245,2.347 -5.008,3.747 -4.967,3.944 -10.559,9.429 -16.576,11.627 -1.296,0.474 -3.759,-1.355 -5.081,-2.154 4.972,-3.65 9.268,-4.893 13.781,-8.524 1.548,-1.244 4.916,-5.695 5.002,-7.642 -0.842,-0.586 -2.636,-0.047 -3.767,-0.035 -4.008,0.041 -8.011,-0.788 -11.89,0.586 -1.819,0.644 -4.836,-2.096 -4.223,-4.012 0.489,-1.587 2.661,-1.95 4.076,-1.731 6.651,1.031 10.274,1.371 16.335,-2.003 -5.174,-1.706 -16.093,-8.447 -19.065,-13.112 10e-4,0 -5.84,1.611 -6.211,1.611 -5.927,-0.007 -3.745,18.668 -9.296,13.986 -0.885,-0.746 -1.211,-11.077 -1.189,-12.964 -2.791,2.068 -6.298,4.696 -9.417,6.085 -4.958,2.209 -10.612,1.332 -15.826,3.366 -0.836,2.108 -1.837,5.465 -3.935,6.39 -2.209,-0.146 -1.673,-4.225 -0.122,-5.014 0.84,-0.427 1.09,-0.615 1.347,-1.502 -0.25,-0.836 -0.474,-1.32 -0.365,-2.188 1.623,-2.859 7.518,-1.702 10.284,-3.264 5.574,-3.178 9.785,-9.536 13.271,-14.841 4.333,-6.594 8.061,-3.473 13.316,0.305 2.527,-1.601 4.616,-3.312 7.434,-5.034 -5.489,-3.803 -8.166,-4.386 -14.381,-5.963 -5.591,-1.419 -21.375,6.828 -24.46,4.621 0.315,-1.458 5.159,-3.474 6.53,-3.819 6.807,-1.712 13.9,-7.158 20.888,-4.392 3.373,1.335 8.57,1.735 12.212,1.979 -2.495,-2.258 -6.872,-3.805 -10.066,-5.022 -4.118,-1.569 -11.853,-5.262 -2.786,-7.721 3.125,1.024 11.609,5.338 14.569,7.084 -1.531,-2.41 -1.82,-3.429 -2.623,-6.12 5.448,-0.167 7.823,1.548 12.683,3.767 -1.014,-2.134 -1.833,-4.138 -2.535,-6.389 0.857,-1.503 1.102,-1.851 2.229,-3.163 6.762,6.023 4.414,9.013 14.494,10.631 -0.923,-1.626 -2.557,-4.094 -2.641,-5.984 -0.041,-0.929 0.379,-1.113 0.963,-1.678 -4.169,-2.489 -8.913,-3.88 -13.665,-4.751 4.264,-8.171 5.899,-13.662 3.01,-22.623 -6.377,4.345 -11.815,13.123 -17.291,18.605 -1.155,1.155 -6.621,0.229 -8.235,0.307 -9.034,-0.448 -17.733,-0.894 -26.788,-0.64 -5.13,0.143 -11.965,1.266 -16.831,0.883 -5.211,-5.586 -12.602,-14.968 -18.79,-19.044 -2.069,11.098 -0.577,12.552 3.396,22.287 z m 118.974,-70.145 c -0.445,1.533 -0.844,2.775 -1.388,4.275 -1.997,4.197 -8.985,18.224 -13.551,18.32 -14.996,1.444 -34.273,-9.535 -47.712,-15.901 9.527,14.315 22.954,24.861 39.322,30.436 2.851,0.971 6.813,0.707 9.647,1.97 2.985,1.331 5.347,4.13 8.101,5.88 9.825,6.603 18.36,6.204 29.496,5.924 -6.841,4.898 -11.709,5.205 -20.092,4.382 8.429,6.167 20.849,6.384 30.844,5.884 -4.214,3.641 -6.014,4.56 -11.346,6.051 15.244,5.266 23.067,7.742 32.361,21.49 1.994,-5.552 3.986,-12.27 5.271,-17.846 2.117,-9.186 -1.851,-13.594 -7.693,-19.841 -1.191,-1.274 -2.828,-3.562 -3.496,-5.219 -0.736,-1.824 -0.882,-4.074 -0.827,-6.057 0.185,-6.661 -1.32,-10.25 -5.052,-15.748 -4.265,-6.282 -9.713,-11.806 -14.723,-17.528 -4.686,-5.352 -9.413,-11.036 -14.583,-15.903 -10.009,-9.424 -23.767,-15.8663 -37.281,-18.366 -14.68,-2.7154 -29.072,-1.535 -41.668,6.902 5.208,-0.572 9.788,-1.096 15.083,-0.812 15.235,0.818 30.04,6.891 42.243,15.908 2.113,1.562 5.331,3.933 7.044,5.799 z m -178.969,68.541 c -2.92,-2.713 -5.661,-5.129 -8.569,-7.923 7.732,1.054 16.064,1.54 23.498,-1.271 1.248,-0.472 3.457,-1.129 4.205,-2.226 -0.465,-0.585 -1.363,-0.662 -2.154,-0.723 -6.215,-0.484 -10.831,-2.049 -15.973,-5.679 12.33,0.232 25.693,-0.099 34.86,-9.608 3.366,-3.493 8.848,-3.289 13.167,-4.686 13.576,-5.072 30.482,-16.834 37.239,-29.729 -4.942,2.93 -42.579,20.714 -46.709,15.802 -0.671,-1.237 -1.47,-2.395 -2.231,-3.578 -3.498,-5.436 -7.104,-10.817 -10.226,-16.483 -0.915,-1.285 -1.163,-2.412 -1.529,-3.948 12.783,-15.177 39.517,-21.244 58.797,-19.708 1.074,0.086 4.267,0.637 4.968,0.514 -0.524,-1.189 -7.58,-3.973 -9.29,-4.6647 -15.204,-6.1474 -33.594,-4.0206 -48.429,2.4257 -19.159,8.326 -33.743,25.915 -45.937,42.263 -2.837,3.804 -6.922,9.195 -8.73,13.564 -1.41,3.405 -1.262,6.706 -0.882,10.297 -6.202,9.477 -12.679,19.547 -10.521,31.443 0.401,2.208 3.816,13.066 6.441,12.296 0.571,-0.549 4.12,-5.256 4.806,-6.19 6.527,-8.881 12.376,-10.863 23.199,-12.188 z m 195.815,9.719 c -3.476,3.175 -13.498,10.13 -17.439,12.648 -7.124,-5.436 -12.538,-11.876 -21.872,-15.19 2.495,2.831 4.883,6.578 7.64,9.052 2.22,1.992 5.805,3.462 8.316,5.14 7.149,3.881 10.383,7.609 11.151,15.871 0.578,6.21 0.706,9.28 -0.855,15.427 l 4.961,1.217 c 0.62,-1.327 1.122,-2.463 1.666,-3.824 -0.946,-0.629 -2.138,-1.287 -3.133,-1.872 2.828,-1.254 7.869,-4.311 11.068,-5.927 11.713,-5.919 21.561,-10.318 34.323,-13.162 -2.322,-13.548 -17.166,-23.265 -29.54,-26.082 -3.451,-0.786 -6.925,-1.347 -10.328,-2.197 1.292,2.282 3.33,6.466 4.042,8.899 z m -74.868,136.688 0.038,-6.264 c -3.172,0.029 -7.926,0.198 -10.931,-0.142 -0.016,9.769 -0.465,22.426 0.19,31.941 6.687,1.054 19.776,0.845 26.643,0.544 0.118,-2.625 0.364,-6.803 -0.088,-9.293 -3.139,-0.05 -13.07,-0.231 -15.82,0.214 0.019,-2.765 0.071,-5.609 0.041,-8.366 3.058,0.142 6.162,-0.039 9.103,0.111 -0.066,-2.926 0.132,-5.831 0.068,-8.732 -3.449,-0.305 -5.818,-0.513 -9.244,-0.013 z m 16.955,-17.848 c -1.068,-0.421 -2.991,-0.026 -4.237,0.117 -7.893,-0.193 -15.399,0.082 -23.064,-0.058 -0.448,3.172 -0.489,6.035 -0.59,9.232 2.124,-0.003 11.636,-0.199 13.331,0.015 2.187,0.254 12.287,0.29 14.649,0.074 5.717,-0.355 13.228,-0.053 19.116,-0.154 0.021,3.324 0.065,6.613 -0.064,9.936 -2.748,-0.01 -6.059,-0.185 -8.681,-0.139 0.273,-2.915 0.288,-4.528 0.062,-7.457 -3.409,-0.108 -7.195,0.032 -10.428,-0.121 -0.131,10.786 -0.183,21.609 0.109,32.392 3.799,0.318 6.496,0.362 10.299,0.022 0.966,-5.219 0.346,-9.412 0.128,-14.592 -0.031,-0.713 0.017,-0.744 0.341,-1.135 1.933,0.736 7.394,12.963 9.382,15.696 1.42,-0.073 9.749,-0.066 10.128,-0.226 0.117,-0.722 -0.046,-0.999 -0.282,-1.687 0.221,-0.872 0.531,-1.026 1.208,-1.622 3.993,4.271 5.176,3.377 10.365,3.772 8.051,0.613 11.149,-0.91 18.251,-4.268 0.099,-2.485 0.71,-15.873 -0.783,-17.35 -5.526,-5.471 -10.935,-4.857 -18.104,-4.609 -0.003,-2.95 0.017,-5.749 0.117,-8.7 1.931,-0.079 6.462,-0.395 8.086,0.295 0.323,0.767 0.131,2.003 0.074,2.883 3.702,0.035 6.843,0.16 10.603,0.056 0.065,-2.837 0.778,-7.737 -1.416,-9.677 -2.449,-2.166 -5.521,-2.573 -8.646,-2.574 -4.917,-10e-4 -9.819,0.057 -14.732,0.139 -1.155,0.768 -3.968,2.549 -4.149,3.978 -0.652,5.152 0.272,10.788 -0.148,15.954 l -0.044,0.505 c -0.189,0.707 -0.198,1.724 -0.237,2.487 -0.73,-1.095 0.365,-13.294 -0.585,-14.505 -0.049,-1.655 -0.129,-3.199 -0.241,-4.852 -4.969,-3.445 -4.989,-3.619 -11.164,-3.722 -6.186,-0.103 -12.487,0.044 -18.654,-0.105 z m 104.813,85.57 c 1.703,-1.798 3.281,-3.484 5.109,-5.165 2.098,-3.049 3.938,-6.493 5.839,-9.656 8.206,-13.652 12.045,-23.715 12.341,-39.839 -3.651,0.005 -7.361,0.043 -11.006,-0.02 -1.537,2.644 -4.605,8.602 -5.927,11.488 3.714,12.187 1.843,22.948 -2.641,34.746 -1.107,2.912 -2.588,5.648 -3.715,8.446 z m -282.023,-1.319 c -4.702,-10.44 -8.421,-21.135 -7.624,-32.8 0.246,-3.606 0.849,-5.918 1.352,-9.348 -1.137,-2.913 -2.865,-6.106 -4.345,-8.88 -3.21,-0.06 -7.9113,-0.424 -11.0532,-1.056 -0.9435,1.482 0.5735,10.788 1.1838,13.399 3.3262,14.227 10.5604,28.348 20.2334,39.294 0.092,0.058 0.185,0.115 0.277,0.173 l 0.204,-0.134 z m 49.499,-83.958 c -1.896,1.387 -3.042,2.306 -4.502,4.192 l -0.178,5.669 c 6.308,-0.221 12.698,-0.865 18.888,-0.956 -0.014,1.524 -0.332,5.829 0.444,6.885 0.177,0.009 0.887,0.056 1.038,0.044 3.108,0.145 5.968,0.218 9.079,0.231 -0.012,-4.023 0.015,-8.109 -0.04,-12.126 -0.927,-1.175 -2.785,-2.933 -3.992,-3.835 -4.486,-0.374 -12.372,-0.385 -17.075,-0.189 z M 448.023,174.722 c 1.701,1.716 3.336,3.098 5.164,4.664 0.95,1.039 1.834,2.039 2.747,3.109 1.51,-6.265 7.686,-43.354 1.81,-46.181 -0.261,10.888 -4.558,28.782 -9.721,38.408 z M 226.501,321.383 c -1.449,0.053 -2.77,0.124 -4.223,0.015 l -0.114,8.991 c 3.789,0.013 7.617,0.085 11.399,0.055 1.45,0.019 2.963,0.012 4.406,0.097 -0.518,-3.392 -0.874,-5.766 -1.704,-9.094 -3.245,-0.066 -6.522,-0.176 -9.764,-0.064 z m -14.713,0.106 c -3.325,-0.171 -9.274,0.125 -11.87,-0.205 -0.969,2.217 -1.79,6.587 -2.634,9.08 4.539,0.087 10.235,0.251 14.779,0.105 0.827,0.003 1.378,0.172 1.895,-0.221 -0.179,-2.01 -1.546,-6.555 -2.17,-8.759 z m 29.082,20.004 -0.137,-0.371 c -0.703,-1.927 -1.678,-7.156 -2.694,-8.153 -2.758,-1.019 -12.299,-0.314 -15.801,-0.291 -0.236,5.844 -1.991,14.282 0.375,19.018 3.503,2.083 5.507,1.684 9.474,1.671 -0.058,-3.075 -0.341,-8.633 0.265,-11.477 l 0.172,-0.089 c 0.552,2.111 0.676,4.243 1.095,6.304 1.005,4.944 2.233,12.274 4.166,16.887 2.45,-0.02 5.262,-0.109 7.682,0.013 1.243,-7.375 2.611,-14.71 4.17,-22.025 0.269,-1.26 0.42,-2.257 0.969,-3.443 l 0.235,0.116 c 0.444,3.721 -1.401,22.432 0.408,24.148 2.073,1.966 8,1.332 10.662,1.242 0.446,-10.503 0.063,-21.771 0.177,-32.364 -5.575,0.026 -12.108,-0.145 -17.598,0.078 -0.899,3.538 -1.336,5.555 -1.575,9.24 -1.127,-0.16 -0.925,-0.556 -2.045,-0.504 z m -7.484,64.857 c 0.017,1.372 0.009,2.851 0.057,4.213 l 0.08,3.169 c 4.237,0.589 8.229,0.331 12.477,-0.036 0.092,-2.35 0.269,-5.084 0.26,-7.407 1.607,0.051 3.044,0.065 4.651,0.039 0.09,-3.089 0.184,-7.463 -0.051,-10.533 -1.32,-0.018 -3.164,0.053 -4.388,-0.278 -0.627,-2.156 -0.292,-20.936 -0.176,-24.373 -3.656,-0.123 -7.198,-0.136 -10.859,-0.025 -4.411,0.868 -16.372,18.782 -19.63,23.039 -2.364,3.089 -1.579,7.917 -1.644,12.066 5.941,0.12 13.33,0.334 19.223,0.126 z m 23.677,-75.869 c 1.764,-0.009 3.575,-0.04 5.335,-0.005 -0.053,-3.054 -0.094,-6.041 -0.263,-9.092 -3.749,-0.09 -7.24,-0.075 -10.992,-0.011 -1.601,0.051 -3.24,0.137 -4.837,0.058 -0.171,2.2 -1.003,7.117 -0.243,8.836 0.696,0.671 1.118,0.786 2.095,0.729 3.028,-0.178 5.858,-0.485 8.905,-0.515 z m -67.857,11.969 c -3.003,-0.653 -10.293,-0.286 -13.725,-0.207 -0.204,2.399 -0.889,6.701 0.786,8.43 2.14,2.212 2.212,1.688 2.127,5.149 -2.917,0.28 -4.433,0.188 -7.32,0.136 l -0.051,-23.234 c -3.331,0.379 -8.666,-0.405 -10.772,0.65 -0.923,1.453 -0.809,4.459 -0.751,6.203 0.237,7.1 -0.067,14.283 0.127,21.368 1.478,1.399 2.921,2.852 4.6,3.999 4.226,0.304 15.443,0.308 19.67,0.051 l 2.353,-1.683 c 0.785,0.034 1.785,0.01 2.484,0.289 l 0.303,0.43 c 0.032,0.385 0.068,0.432 0.174,0.806 2,0.715 9.154,0.381 11.652,0.302 0.26,-2.123 0.531,-3.969 0.91,-6.074 3.055,-0.302 4.976,-0.3 8.022,0.052 0.427,1.5 1.073,4.344 1.995,5.445 2.735,1.576 7.488,0.607 10.59,0.563 3.235,-0.047 6.424,-0.007 9.659,0.058 -0.376,-3.951 -0.183,-7.242 0.017,-11.179 -2.441,0.247 -7.597,0.205 -10.064,0.05 0.192,1.758 0.426,8.826 -0.064,10.341 l -0.258,-0.041 c -0.534,-1.301 -0.879,-6.11 -1.389,-8.199 -1.7,-6.972 -3.548,-16.429 -5.913,-23.122 l -0.101,-0.278 c -5.594,-0.109 -11.295,-0.02 -16.911,-0.077 -2.64,8.833 -5.618,18.599 -7.406,27.606 -0.718,-0.969 -0.448,-15.269 -0.744,-17.834 z M 54.0722,136.694 c -0.7789,2.14 -1.1815,4.964 -1.5265,7.254 -1.6016,10.629 -0.884,21.757 2.4018,32.007 0.3752,1.17 1.0681,3.772 1.7339,4.718 0.8572,-0.024 2.019,-1.315 2.6498,-1.947 l 4.018,-3.983 c -3.3514,-8.028 -6.3775,-17.847 -7.86,-26.492 -0.3801,-2.217 -0.612,-10.433 -1.417,-11.557 z"
     id="path2"
     sodipodi:nodetypes="cccccccsccccccccccccccccccccccccccccccccccccccccccccccccccccccccccccccccccscccccccccccccscscccccsccscccccccccccccccccccccscccccscccccccccccccccccccccccccccccccccccccccccscccccccscccccccccccccccccccccscccccccsccccscscccccccccccccccccccccccccccccccccccccccccccccccccccccccccccccccccccccccccccccccccccccccccccccccccccccccccccccccccccccccccccccccccccccccccccccccccccccccccccccccccccccccccsccccccccccccccccccccccccccccccccccccccccccccccccc"
     style="fill:#ffffff;fill-opacity:1" />
  <path
     fill="#36BDF9"
     transform="scale(2 2)"
     d="M308.457 264.472L309.094 264.583L309.444 265.083C309.681 267.991 308.403 270.295 305.351 270.535C301.19 267.216 305.737 265.651 308.457 264.472Z"
     id="path4" />
  <path
     fill="#36BDF9"
     transform="scale(2 2)"
     d="M233.23 241.02C237.537 240.709 237.549 244.077 235.317 246.679C233.831 246.468 231.897 244.893 231.87 243.292C231.851 242.188 232.516 241.698 233.23 241.02Z"
     id="path6" />
  <path
     fill="#36BDF9"
     transform="scale(2 2)"
     d="M276.24 250.003C280.579 250.144 281.796 250.849 279.854 255.064C276.609 256.229 275.468 252.188 276.24 250.003Z"
     id="path8" />
  <path
     fill="#36BDF9"
     transform="scale(2 2)"
     d="M281.348 257.397C283.08 257.771 284.665 259.502 284.703 261.343C284.224 262.293 284.301 262.031 283.27 262.699C282.196 263.075 280.441 263.357 280.038 261.807C279.602 260.132 280.541 258.798 281.348 257.397Z"
     id="path10" />
  <path
     fill="#36BDF9"
     transform="scale(2 2)"
     d="M276.569 262.415C279.512 262.452 280.292 265.352 277.593 267.47C276.7 267.778 276.708 267.838 275.753 267.627C274.034 266.092 275.53 263.899 276.569 262.415Z"
     id="path12" />
  <path
     fill="#36BDF9"
     transform="scale(2 2)"
     d="M281.713 271.981C285.837 271.849 283.32 275.581 281.465 277.043C277.649 275.651 278.805 273.628 281.713 271.981Z"
     id="path14" />
  <path
     fill="#36BDF9"
     transform="scale(2 2)"
     d="M248.022 227.099C249.385 227.291 249.908 227.352 250.663 228.564C250.968 230.402 250.112 231.006 248.689 231.855C247.682 231.7 247.489 231.699 246.575 231.297C245.315 229.691 246.927 228.393 248.022 227.099Z"
     id="path16" />
  <path
     fill="#36BDF9"
     transform="scale(2 2)"
     d="M240.655 228.128C241.735 227.717 242.944 228.258 243.356 229.337C243.769 230.416 243.23 231.626 242.151 232.04C241.07 232.454 239.858 231.914 239.445 230.833C239.032 229.752 239.573 228.541 240.655 228.128Z"
     id="path18" />
  <path
     fill="#36BDF9"
     transform="scale(2 2)"
     d="M294.201 199.373C295.058 197.87 295.303 197.522 296.43 196.21C303.192 202.233 300.844 205.223 310.924 206.841C310.001 205.215 308.367 202.747 308.283 200.857C308.242 199.928 308.662 199.744 309.246 199.179L310.561 199.776C313.056 202.607 315.444 206.354 318.201 208.828C320.421 210.82 324.006 212.29 326.517 213.968C333.666 217.849 336.9 221.577 337.668 229.839C338.246 236.049 338.374 239.119 336.813 245.266C336.672 245.969 336.505 246.73 336.389 247.432C335.396 247.145 333.236 246.032 332.219 245.538C330.922 247.888 328.47 254.852 327.337 257.813C326.119 255.809 324.783 253.718 323.759 251.622C322.529 253.272 314.403 260.772 312.275 262.797C311.727 260.943 311.385 259.603 311.295 257.665C309.69 258.969 308.05 260.012 306.287 261.412C301.32 265.356 295.728 270.841 289.711 273.039C288.415 273.513 285.952 271.684 284.63 270.885C289.602 267.235 293.898 265.992 298.411 262.361C299.959 261.117 303.327 256.666 303.413 254.719C302.571 254.133 300.777 254.672 299.646 254.684C295.638 254.725 291.635 253.896 287.756 255.27C285.937 255.914 282.92 253.174 283.533 251.258C284.022 249.671 286.194 249.308 287.609 249.527C294.26 250.558 297.883 250.898 303.944 247.524C298.77 245.818 287.851 239.077 284.879 234.412C284.88 234.412 279.039 236.023 278.668 236.023C272.741 236.016 274.923 254.691 269.372 250.009C268.487 249.263 268.161 238.932 268.183 237.045C265.392 239.113 261.885 241.741 258.766 243.13C253.808 245.339 248.154 244.462 242.94 246.496C242.104 248.604 241.103 251.961 239.005 252.886C236.796 252.74 237.332 248.661 238.883 247.872C239.723 247.445 239.973 247.257 240.23 246.37C239.98 245.534 239.756 245.05 239.865 244.182C241.488 241.323 247.383 242.48 250.149 240.918C255.723 237.74 259.934 231.382 263.42 226.077C267.753 219.483 271.481 222.604 276.736 226.382C279.263 224.781 281.352 223.07 284.17 221.348C278.681 217.545 276.004 216.962 269.789 215.385C264.198 213.966 248.414 222.213 245.329 220.006C245.644 218.548 250.488 216.532 251.859 216.187C258.666 214.475 265.759 209.029 272.747 211.795C276.12 213.13 281.317 213.53 284.959 213.774C282.464 211.516 278.087 209.969 274.893 208.752C270.775 207.183 263.04 203.49 272.107 201.031C275.232 202.055 283.716 206.369 286.676 208.115C285.145 205.705 284.856 204.686 284.053 201.995C289.501 201.828 291.876 203.543 296.736 205.762C295.722 203.628 294.903 201.624 294.201 199.373Z"
     id="path20" />
  <path
     fill="#36BDF9"
     transform="scale(2 2)"
     d="M276.399 372.561C281.14 372.564 297.812 371.45 300.891 374.506C303.199 376.796 302.47 383.586 302.456 386.626L289.723 386.704C289.685 385.091 289.719 383.405 289.729 381.785C287.811 381.747 286.163 381.784 284.244 381.861L284.266 386.545C289.62 388 297.466 392.018 302.481 394.504C302.413 399.762 302.436 404.989 302.522 410.247C299.622 412.093 297.92 413.494 294.439 413.637C289.164 413.656 274.965 414.687 271.441 411.156C269.335 409.046 270.143 401.77 270.291 398.727C274.594 398.667 278.945 398.727 283.252 398.755C283.222 400.648 283.247 402.606 283.245 404.505L289.753 404.501L289.759 398.815C282.636 396.234 277.042 392.919 270.284 389.986C269.929 383.557 268.486 374.602 276.399 372.561Z"
     id="path22" />
  <path
     transform="scale(2 2)"
     d="M233.153 386.147C233.827 387.078 233.228 394.131 233.153 395.735C231.429 395.556 229.451 395.431 227.731 395.564L227.54 395.533L227.356 395.15C227.823 393.472 231.926 387.779 233.153 386.147Z"
     id="path24" />
  <path
     fill="#36BDF9"
     transform="scale(2 2)"
     d="M257.781 116.547C261.046 115.095 267.183 113.724 270.803 113.161C291.123 110.004 315.055 116.213 331.638 128.333C329.641 132.53 322.653 146.557 318.087 146.653C316.298 144.141 314.019 140.917 311.743 138.874C297 125.64 276.574 120.061 257.781 116.547Z"
     id="path26" />
  <path
     fill="#36BDF9"
     transform="scale(2 2)"
     d="M181.164 126.495C182.82 125.393 184.564 124.492 186.311 123.547C203.171 114.431 222.936 109.725 241.986 113.426C245.718 114.151 249.346 115.349 252.955 116.522C234.897 119.187 202.606 129.566 193.621 146.556C192.95 145.319 192.151 144.161 191.39 142.978C187.892 137.542 184.286 132.161 181.164 126.495Z"
     id="path28" />
  <path
     transform="scale(2 2)"
     d="M205.537 337.163C206.337 337.969 208.316 349.822 207.97 351.305C207.307 351.646 205.991 351.555 205.188 351.563C204.51 351.461 204.361 351.771 203.299 351.55C202.934 349.936 204.901 338.975 205.537 337.163Z"
     id="path30" />
  <path
     transform="scale(2 2)"
     d="M322.018 329.837C322.968 331.048 321.873 343.247 322.603 344.342C322.642 343.579 322.651 342.562 322.84 341.855C322.935 343.297 322.71 343.611 323.769 344.6C328.252 348.792 335.785 347.338 341.499 347.889C341.481 350.035 341.554 353.886 341.396 355.9C339.021 356.109 336.13 356.591 333.918 355.877C333.406 355.318 333.361 354.917 333.15 354.191C332.025 353.266 329.699 353.458 328.21 353.536C325.506 353.677 324.203 355.732 322.703 357.678L321.731 358.95C322.264 359.779 322.802 360.645 323.366 361.451C322.689 362.047 322.379 362.201 322.158 363.073C320.461 359.6 316.952 351.984 315.653 348.567C318.739 347.484 319.729 346.446 321.828 344.107C322.185 339.602 321.819 334.453 322.018 329.837Z"
     id="path32" />
  <path
     fill="#36BDF9"
     transform="scale(2 2)"
     d="M256.769 372.566C260.661 372.543 264.411 372.539 268.3 372.647C268.38 379.161 267.094 381.949 264.238 387.589C263.605 388.745 262.842 389.863 262.121 390.97L256.783 391.015L256.769 372.566Z"
     id="path34" />
  <path
     transform="scale(2 2)"
     d="M287.722 321.275C288.968 321.132 290.891 320.737 291.959 321.158C291.931 323.415 291.783 328.436 292.048 330.538C289.686 330.754 279.586 330.718 277.399 330.464C280.672 330.138 287.215 330.324 290.723 330.327C290.947 328.431 291.172 323.972 290.458 321.985C290.243 321.384 288.51 321.355 287.722 321.275Z"
     id="path36" />
  <path
     transform="scale(2 2)"
     d="M189.206 342.45C189.502 345.015 189.232 359.315 189.95 360.284C189.905 361.226 189.53 363.277 189.037 364.031L188.734 363.601C188.035 363.322 187.035 363.346 186.25 363.312L188.924 362.032C189.598 356.441 188.531 348.178 189.206 342.45Z"
     id="path38" />
  <path
     transform="scale(2 2)"
     d="M113.846 267.442C114.277 266.405 114.34 265.423 114.697 264.567C114.969 265.483 115.176 266.107 115.534 266.991C115.717 268.317 115.9 269.603 116.119 270.925L116.038 272.111C115.894 272.229 115.767 272.383 115.592 272.449C115.091 270.482 114.62 269.342 113.846 267.442Z"
     id="path40" />
  <path
     transform="scale(2 2)"
     d="M116.119 270.925C116.414 272.067 117.886 277.328 117.846 278.075C117.708 278.523 117.499 279.132 117.399 279.572C117.075 277.102 116.238 274.858 115.592 272.449C115.767 272.383 115.894 272.229 116.038 272.111L116.119 270.925Z"
     id="path42" />
  <path
     transform="scale(2 2)"
     d="M117.846 278.075C118.294 279.529 119.069 281.54 119.399 282.89C118.81 283.257 118.705 283.304 118.161 283.743C117.985 282.14 118.042 281.066 117.399 279.572C117.499 279.132 117.708 278.523 117.846 278.075Z"
     id="path44" />
  <path
     transform="scale(2 2)"
     d="M240.87 341.493C241.99 341.441 241.788 341.837 242.915 341.997C242.959 343.072 243.068 343.824 242.76 344.862L242.453 344.973C241.746 344.096 241.287 342.592 240.87 341.493Z"
     id="path46" />
</svg>
